Coordinates
version=1
nRows=11
nColumns=46
inDegrees=yes

Units are S.I. units (second, meters, Newtons, ...)
Angles are in degrees.

endheader
time	pelvis_tilt	pelvis_list	pelvis_rotation	pelvis_tx	pelvis_ty	pelvis_tz	bb_angle	bb_tx	bb_ty	bb_tz	hip_flexion_r	hip_adduction_r	hip_rotation_r	knee_angle_r	knee_angle_r_beta	ankle_angle_r	subtalar_angle_r	mtp_angle_r	crank_angle_r	hip_flexion_l	hip_adduction_l	hip_rotation_l	knee_angle_l	knee_angle_l_beta	ankle_angle_l	subtalar_angle_l	mtp_angle_l	crank_angle_l	lumbar_extension	lumbar_bending	lumbar_rotation	arm_flex_r	arm_add_r	arm_rot_r	elbow_flex_r	pro_sup_r	wrist_flex_r	wrist_dev_r	arm_flex_l	arm_add_l	arm_rot_l	elbow_flex_l	pro_sup_l	wrist_flex_l	wrist_dev_l
      5.00500000	    -26.74751023	     11.73600772	      5.65644146	      0.34935597	      1.11670270	     -0.28373660	      0.00000000	      0.50000000	      0.00000000	      0.25000000	     38.32550686	    -17.06356180	      0.37091942	     35.72232193	      0.62347213	    -25.72164274	     -5.28200995	      0.00000000	      0.00000000	     83.04153190	      0.24505496	     -3.77650212	     95.34914776	      1.66415657	      6.72479864	      0.69892937	      0.00000000	      0.00000000	    -65.08764822	     -8.95501040	     -3.87021858	     63.61152772	    -31.39769014	     21.98243477	     77.28231399	     47.01645461	      0.00000000	      0.00000000	     80.52258846	     -3.82993230	     26.54549653	     60.08777936	     43.30604991	      0.00000000	      0.00000000
      5.01000000	    -26.92206357	     11.47890457	      5.22540188	      0.34904893	      1.11838874	     -0.28300262	      0.00000000	      0.50000000	      0.00000000	      0.25000000	     39.21758213	    -16.52809365	      0.95945722	     37.64965772	      0.65711049	    -25.32596960	     -5.64240192	      0.00000000	      0.00000000	     81.85100930	     -0.33563943	     -3.99345256	     92.97114354	      1.62265256	      8.54643161	      0.95486378	      0.00000000	      0.00000000	    -65.12861299	     -9.54825906	     -4.35825333	     64.08861213	    -29.71302056	     21.07493993	     75.29179318	     46.57312334	      0.00000000	      0.00000000	     79.68188351	     -3.34063488	     23.06338160	     62.03356217	     43.20133582	      0.00000000	      0.00000000
      5.01500000	    -26.86749813	     10.95382244	      4.93547440	      0.34881061	      1.11989783	     -0.28272397	      0.00000000	      0.50000000	      0.00000000	      0.25000000	     39.89217685	    -15.91558931	      1.11214098	     39.75234658	      0.69380933	    -24.99247725	     -6.04557004	      0.00000000	      0.00000000	     80.49190933	     -0.73111256	     -4.01369685	     90.59513427	      1.58118338	     10.06815653	      0.38514874	      0.00000000	      0.00000000	    -65.34160382	     -9.84401692	     -4.14448145	     64.25973295	    -29.66314930	     21.06394887	     75.10199216	     46.53799750	      0.00000000	      0.00000000	     79.77843670	     -3.12641063	     22.97097068	     62.31132391	     43.23070575	      0.00000000	      0.00000000
      5.02000000	    -26.89777097	     10.78088202	      4.54045619	      0.34864477	      1.12133263	     -0.28216552	      0.00000000	      0.50000000	      0.00000000	      0.25000000	     40.80303510	    -15.48720947	      1.80580129	     41.94975011	      0.73216126	    -24.56027491	     -6.33272234	      0.00000000	      0.00000000	     79.03410428	     -1.15118161	     -4.53516736	     87.93438928	      1.53474462	     11.06413306	     -0.59127400	      0.00000000	      0.00000000	    -65.56973853	    -10.47535532	     -4.21842527	     64.38674912	    -29.58328495	     21.04379430	     74.61056091	     46.45101764	      0.00000000	      0.00000000	     79.84544809	     -2.85669689	     22.56204463	     62.86220079	     43.26647397	      0.00000000	      0.00000000
      5.02500000	    -26.86686930	     10.45158922	      4.09098659	      0.34865310	      1.12234890	     -0.28202998	      0.00000000	      0.50000000	      0.00000000	      0.25000000	     41.74985736	    -14.97548900	      2.29028380	     44.31958620	      0.77352270	    -24.05189623	     -6.37955688	      0.00000000	      0.00000000	     77.60250685	     -1.56529211	     -4.95051990	     85.32956527	      1.48928186	     11.67528363	     -1.96956144	      0.00000000	      0.00000000	    -65.64150145	    -10.83994027	     -4.74642671	     65.18739898	    -28.25317125	     21.43433657	     72.78466994	     46.18961407	      0.00000000	      0.00000000	     79.11232011	     -3.10190408	     20.67404119	     64.57647636	     43.30142866	      0.00000000	      0.00000000
      5.03000000	    -26.68790340	      9.93030941	      3.65574384	      0.34878524	      1.12330930	     -0.28152566	      0.00000000	      0.50000000	      0.00000000	      0.25000000	     42.49447960	    -14.20296167	      2.78057590	     46.69464296	      0.81497526	    -23.55482642	     -6.70102246	      0.00000000	      0.00000000	     76.11243140	     -2.18238397	     -5.33639861	     82.73831897	      1.44405608	     11.92540296	     -2.90914129	      0.00000000	      0.00000000	    -65.89161275	    -11.12046860	     -4.53764577	     65.45530710	    -28.13123600	     21.56489125	     72.44785167	     46.14685826	      0.00000000	      0.00000000	     79.08944882	     -3.06042263	     20.46879508	     64.99787952	     43.33994372	      0.00000000	      0.00000000
      5.03500000	    -26.43803605	      9.29041746	      3.25068894	      0.34890151	      1.12390044	     -0.28138521	      0.00000000	      0.50000000	      0.00000000	      0.25000000	     43.26232004	    -13.41189567	      3.06097346	     49.23076705	      0.85923898	    -23.04144782	     -6.90443090	      0.00000000	      0.00000000	     74.67153013	     -2.72440320	     -5.50663770	     80.27134791	      1.40099932	     11.95420096	     -3.67550973	      0.00000000	      0.00000000	    -66.05108796	    -11.23531661	     -4.20474241	     65.71792701	    -27.90329345	     21.73845995	     72.13889661	     46.11111963	      0.00000000	      0.00000000	     78.89737227	     -3.11606711	     20.16598040	     65.38919359	     43.36837883	      0.00000000	      0.00000000
      5.04000000	    -26.27611299	      8.85155384	      2.91340511	      0.34894315	      1.12424079	     -0.28162595	      0.00000000	      0.50000000	      0.00000000	      0.25000000	     44.21232531	    -12.86700530	      3.48739769	     51.83962541	      0.90477215	    -22.42229413	     -6.61687257	      0.00000000	      0.00000000	     73.34747808	     -3.12672140	     -5.91960275	     77.78134819	      1.35754062	     11.41561550	     -4.64083627	      0.00000000	      0.00000000	    -66.08587177	    -11.16752728	     -4.97002656	     67.15664443	    -26.31307714	     23.40197120	     69.58498720	     45.85651897	      0.00000000	      0.00000000	     77.90019973	     -3.99943013	     18.11967782	     67.72502180	     43.50082093	      0.00000000	      0.00000000
      5.04500000	    -26.05855829	      8.22782929	      2.58715244	      0.34899493	      1.12418629	     -0.28176166	      0.00000000	      0.50000000	      0.00000000	      0.25000000	     45.14638676	    -12.12231464	      3.78609360	     54.55217463	      0.95211506	    -21.88625592	     -6.69145379	      0.00000000	      0.00000000	     72.13842695	     -3.66091623	     -6.07004978	     75.50630871	      1.31783369	     10.79675932	     -5.06856780	      0.00000000	      0.00000000	    -66.15141295	    -11.14079511	     -4.66398511	     67.43615596	    -26.06281378	     23.61257547	     69.13468651	     45.80516506	      0.00000000	      0.00000000	     77.74354643	     -4.13425926	     17.96390554	     68.08979260	     43.53702646	      0.00000000	      0.00000000
      5.05000000	    -25.78302099	      7.44149562	      2.37378961	      0.34891713	      1.12385192	     -0.28203756	      0.00000000	      0.50000000	      0.00000000	      0.25000000	     45.96610554	    -11.28232376	      3.89370643	     57.22263598	      0.99872340	    -21.39923800	     -6.92751772	      0.00000000	      0.00000000	     71.03904681	     -4.19786026	     -5.90731652	     73.42183288	      1.28145273	      9.89946134	     -4.78280226	      0.00000000	      0.00000000	    -66.20436770	    -10.89797658	     -4.28319171	     67.73010273	    -25.87712791	     23.79590438	     68.89173829	     45.78208423	      0.00000000	      0.00000000	     77.54859129	     -4.30800028	     17.76030913	     68.34018156	     43.55574200	      0.00000000	      0.00000000
      5.05500000	    -25.51819629	      6.71524678	      2.20713342	      0.34870106	      1.12320816	     -0.28232737	      0.00000000	      0.50000000	      0.00000000	      0.25000000	     46.90859688	    -10.52208117	      4.03422366	     60.00260612	      1.04724304	    -20.86179109	     -7.03368551	      0.00000000	      0.00000000	     70.01380660	     -4.70776001	     -5.77223298	     71.39875341	      1.24614333	      8.78882125	     -4.33212092	      0.00000000	      0.00000000	    -66.21899274	    -10.63220750	     -3.96273321	     68.09730888	    -25.66865947	     24.10125824	     68.50870637	     45.74661739	      0.00000000	      0.00000000	     77.33821045	     -4.53099970	     17.45496979	     68.72630117	     43.58648690	      0.00000000	      0.00000000
